<svg xmlns="http://www.w3.org/2000/svg" viewBox="0 0 1180 500" font-family="Helvetica, Arial, sans-serif">
<defs>
  <marker id="aI" viewBox="0 0 10 10" refX="9" refY="5" markerWidth="7" markerHeight="7" orient="auto-start-reverse"><path d="M0 1 L9 5 L0 9 Z" fill="#1a1a1a"></path></marker>
  <marker id="aB" viewBox="0 0 10 10" refX="9" refY="5" markerWidth="7" markerHeight="7" orient="auto-start-reverse"><path d="M0 1 L9 5 L0 9 Z" fill="#155e8d"></path></marker>
  <marker id="aA" viewBox="0 0 10 10" refX="9" refY="5" markerWidth="7" markerHeight="7" orient="auto-start-reverse"><path d="M0 1 L9 5 L0 9 Z" fill="#b45309"></path></marker>
  <marker id="aL" viewBox="0 0 10 10" refX="9" refY="5" markerWidth="7" markerHeight="7" orient="auto-start-reverse"><path d="M0 1 L9 5 L0 9 Z" fill="#6b6b6b"></path></marker>
</defs>
<rect x="0" y="0" width="1180" height="500" fill="#ffffff"></rect>
<rect x="16" y="100" width="166" height="104" rx="7" fill="#ffffff" stroke="#155e8d" stroke-width="1.7"></rect>
<circle cx="33" cy="117" r="10" fill="#155e8d"></circle><text x="33" y="121" text-anchor="middle" font-size="11.5" font-weight="bold" fill="#ffffff">1</text>
<svg x="87" y="108" width="24" height="24" viewBox="0 0 24 24" fill="none" stroke="#155e8d" stroke-width="1.7" stroke-linecap="round" stroke-linejoin="round"><rect x="3" y="4" width="18" height="16" rx="2"></rect><path d="M3 9.5 H21 M3 15 H21 M10 4 V20"></path></svg>
<text x="99" y="154" text-anchor="middle" font-size="16" font-weight="bold" fill="#1a1a1a">Framework sample</text>
<text x="99" y="174" text-anchor="middle" font-size="15" fill="#1a1a1a">six-field taxonomy row</text>
<text x="99" y="192" text-anchor="middle" font-size="15" fill="#555555">one seed per polarity</text>

<rect x="212" y="100" width="166" height="104" rx="7" fill="#ffffff" stroke="#155e8d" stroke-width="1.7"></rect>
<circle cx="229" cy="117" r="10" fill="#155e8d"></circle><text x="229" y="121" text-anchor="middle" font-size="11.5" font-weight="bold" fill="#ffffff">2</text>
<svg x="283" y="108" width="24" height="24" viewBox="0 0 24 24" fill="none" stroke="#155e8d" stroke-width="1.7" stroke-linecap="round" stroke-linejoin="round"><path d="M4 6 H11 M4 10.5 H15 M4 15 H19 M4 19.5 H21"></path><path d="M18 3.5 L21 6.5 L18 9.5" fill="none"></path></svg>
<text x="295" y="154" text-anchor="middle" font-size="16" font-weight="bold" fill="#1a1a1a">Prompt upsampling</text>
<text x="295" y="174" text-anchor="middle" font-size="15" fill="#1a1a1a">dense JSON via LLM</text>
<text x="295" y="192" text-anchor="middle" font-size="15" fill="#555555">final action &#8805; 2 s</text>

<rect x="408" y="100" width="166" height="104" rx="7" fill="#f2f2f2" stroke="#1a1a1a" stroke-width="1.7"></rect>
<circle cx="425" cy="117" r="10" fill="#1a1a1a"></circle><text x="425" y="121" text-anchor="middle" font-size="11.5" font-weight="bold" fill="#ffffff">3</text>
<svg x="479" y="108" width="24" height="24" viewBox="0 0 24 24" fill="none" stroke="#1a1a1a" stroke-width="1.7" stroke-linecap="round" stroke-linejoin="round"><path d="M2 12 C5.5 6.5 18.5 6.5 22 12 C18.5 17.5 5.5 17.5 2 12 Z"></path><circle cx="12" cy="12" r="3.2"></circle></svg>
<text x="491" y="154" text-anchor="middle" font-size="16" font-weight="bold" fill="#1a1a1a">Prompt review</text>
<text x="491" y="174" text-anchor="middle" font-size="15" fill="#1a1a1a">two-round realism audit</text>
<text x="491" y="192" text-anchor="middle" font-size="15" fill="#555555">intended anomaly kept</text>

<rect x="604" y="100" width="166" height="104" rx="7" fill="#ffffff" stroke="#155e8d" stroke-width="1.7"></rect>
<circle cx="621" cy="117" r="10" fill="#155e8d"></circle><text x="621" y="121" text-anchor="middle" font-size="11.5" font-weight="bold" fill="#ffffff">4</text>
<svg x="675" y="108" width="24" height="24" viewBox="0 0 24 24" fill="none" stroke="#155e8d" stroke-width="1.7" stroke-linecap="round" stroke-linejoin="round"><rect x="2.5" y="5" width="19" height="14" rx="2"></rect><path d="M6.5 5 V19 M17.5 5 V19 M2.5 9.5 H6.5 M2.5 14.5 H6.5 M17.5 9.5 H21.5 M17.5 14.5 H21.5"></path><path d="M10.5 9.5 L14.5 12 L10.5 14.5 Z"></path></svg>
<text x="687" y="154" text-anchor="middle" font-size="16" font-weight="bold" fill="#1a1a1a">Video generation</text>
<text x="687" y="174" text-anchor="middle" font-size="15" fill="#1a1a1a">Cosmos3-Nano, 480p</text>
<text x="687" y="192" text-anchor="middle" font-size="15" fill="#555555">24 fps, 5&#8211;8 s clips</text>

<rect x="800" y="100" width="166" height="104" rx="7" fill="#e8f0f6" stroke="#155e8d" stroke-width="1.7"></rect>
<circle cx="817" cy="117" r="10" fill="#155e8d"></circle><text x="817" y="121" text-anchor="middle" font-size="11.5" font-weight="bold" fill="#ffffff">5</text>
<svg x="871" y="108" width="24" height="24" viewBox="0 0 24 24" fill="none" stroke="#155e8d" stroke-width="1.7" stroke-linecap="round" stroke-linejoin="round"><path d="M3 7 H13 M3 12 H18 M3 17 H10"></path><path d="M11 4.5 L13.5 7 L11 9.5 M16 9.5 L18.5 12 L16 14.5 M8 14.5 L10.5 17 L8 19.5" fill="none"></path></svg>
<text x="883" y="154" text-anchor="middle" font-size="16" font-weight="bold" fill="#1a1a1a">Flow probe</text>
<text x="883" y="174" text-anchor="middle" font-size="15" fill="#1a1a1a">optical flow vs the</text>
<text x="883" y="192" text-anchor="middle" font-size="15" fill="#555555">prompted ego action</text>

<rect x="996" y="100" width="166" height="104" rx="7" fill="#f2f2f2" stroke="#1a1a1a" stroke-width="1.7"></rect>
<circle cx="1013" cy="117" r="10" fill="#1a1a1a"></circle><text x="1013" y="121" text-anchor="middle" font-size="11.5" font-weight="bold" fill="#ffffff">6</text>
<svg x="1067" y="108" width="24" height="24" viewBox="0 0 24 24" fill="none" stroke="#1a1a1a" stroke-width="1.7" stroke-linecap="round" stroke-linejoin="round"><path d="M2 12 C5.5 6.5 18.5 6.5 22 12 C18.5 17.5 5.5 17.5 2 12 Z"></path><circle cx="12" cy="12" r="3.2"></circle></svg>
<text x="1079" y="154" text-anchor="middle" font-size="16" font-weight="bold" fill="#1a1a1a">Video review</text>
<text x="1079" y="174" text-anchor="middle" font-size="15" fill="#1a1a1a">object, context and</text>
<text x="1079" y="192" text-anchor="middle" font-size="15" fill="#555555">ego action depicted</text>

<line x1="182" y1="152" x2="209" y2="152" stroke="#155e8d" stroke-width="1.7" marker-end="url(#aB)"></line>
<line x1="378" y1="152" x2="405" y2="152" stroke="#155e8d" stroke-width="1.7" marker-end="url(#aB)"></line>
<line x1="574" y1="152" x2="601" y2="152" stroke="#155e8d" stroke-width="1.7" marker-end="url(#aB)"></line>
<line x1="770" y1="152" x2="797" y2="152" stroke="#155e8d" stroke-width="1.7" marker-end="url(#aB)"></line>
<line x1="966" y1="152" x2="993" y2="152" stroke="#155e8d" stroke-width="1.7" marker-end="url(#aB)"></line>
<rect x="996" y="320" width="166" height="104" rx="7" fill="#ffffff" stroke="#155e8d" stroke-width="1.7"></rect>
<circle cx="1013" cy="337" r="10" fill="#155e8d"></circle><text x="1013" y="341" text-anchor="middle" font-size="11.5" font-weight="bold" fill="#ffffff">7</text>
<svg x="1067" y="328" width="24" height="24" viewBox="0 0 24 24" fill="none" stroke="#155e8d" stroke-width="1.7" stroke-linecap="round" stroke-linejoin="round"><path d="M3 12 H9 M9 12 L17 5.5 M9 12 H17 M9 12 L17 18.5"></path><circle cx="19.5" cy="5.5" r="1.8"></circle><circle cx="19.5" cy="12" r="1.8"></circle><circle cx="19.5" cy="18.5" r="1.8"></circle></svg>
<text x="1079" y="374" text-anchor="middle" font-size="16" font-weight="bold" fill="#1a1a1a">Scenery variants</text>
<text x="1079" y="394" text-anchor="middle" font-size="15" fill="#1a1a1a">weather, time of day,</text>
<text x="1079" y="412" text-anchor="middle" font-size="15" fill="#555555">object appearance</text>

<rect x="800" y="320" width="166" height="104" rx="7" fill="#ffffff" stroke="#b45309" stroke-width="1.7"></rect>
<circle cx="817" cy="337" r="10" fill="#b45309"></circle><text x="817" y="341" text-anchor="middle" font-size="11.5" font-weight="bold" fill="#ffffff">8</text>
<svg x="871" y="328" width="24" height="24" viewBox="0 0 24 24" fill="none" stroke="#b45309" stroke-width="1.7" stroke-linecap="round" stroke-linejoin="round"><path d="M2.5 19 C7 19 9 5.5 14 5.5 C17.5 5.5 18.5 12 21.5 12"></path><circle cx="21.5" cy="12" r="1.9"></circle><path d="M2.5 19 H8" ></path></svg>
<text x="883" y="374" text-anchor="middle" font-size="16" font-weight="bold" fill="#1a1a1a">Inverse dynamics</text>
<text x="883" y="394" text-anchor="middle" font-size="15" fill="#1a1a1a">Cosmos 3 at 10 fps</text>
<text x="883" y="412" text-anchor="middle" font-size="15" fill="#555555">[<tspan font-style="italic" font-family="Times New Roman, Times, serif">v</tspan>, <tspan font-style="italic" font-family="Times New Roman, Times, serif">&#968;</tspan>] at 10 Hz</text>

<rect x="604" y="320" width="166" height="104" rx="7" fill="#f8ecdd" stroke="#b45309" stroke-width="1.7"></rect>
<circle cx="621" cy="337" r="10" fill="#b45309"></circle><text x="621" y="341" text-anchor="middle" font-size="11.5" font-weight="bold" fill="#ffffff">9</text>
<svg x="675" y="328" width="24" height="24" viewBox="0 0 24 24" fill="none" stroke="#b45309" stroke-width="1.7" stroke-linecap="round" stroke-linejoin="round"><circle cx="12" cy="12" r="9.2"></circle><path d="M7.5 12.3 L10.6 15.4 L16.6 9.2"></path></svg>
<text x="687" y="374" text-anchor="middle" font-size="16" font-weight="bold" fill="#1a1a1a">Agreement filter</text>
<text x="687" y="394" text-anchor="middle" font-size="15" fill="#1a1a1a">trajectory tail realizes</text>
<text x="687" y="412" text-anchor="middle" font-size="15" fill="#555555">the prompted action</text>

<rect x="408" y="320" width="166" height="104" rx="7" fill="#f2f2f2" stroke="#1a1a1a" stroke-width="1.7"></rect>
<circle cx="425" cy="337" r="10" fill="#1a1a1a"></circle><text x="425" y="341" text-anchor="middle" font-size="11.5" font-weight="bold" fill="#ffffff">10</text>
<svg x="479" y="328" width="24" height="24" viewBox="0 0 24 24" fill="none" stroke="#1a1a1a" stroke-width="1.7" stroke-linecap="round" stroke-linejoin="round"><path d="M2 12 C5.5 6.5 18.5 6.5 22 12 C18.5 17.5 5.5 17.5 2 12 Z"></path><circle cx="12" cy="12" r="3.2"></circle></svg>
<text x="491" y="374" text-anchor="middle" font-size="16" font-weight="bold" fill="#1a1a1a">Trajectory review</text>
<text x="491" y="394" text-anchor="middle" font-size="15" fill="#1a1a1a">realistic and faithful;</text>
<text x="491" y="412" text-anchor="middle" font-size="15" fill="#555555">fail: clip excluded</text>

<rect x="16" y="320" width="362" height="104" rx="7" fill="#faf6ef" stroke="#1a1a1a" stroke-width="1.7"></rect>
<circle cx="33" cy="337" r="10" fill="#1a1a1a"></circle><text x="33" y="341" text-anchor="middle" font-size="11.5" font-weight="bold" fill="#ffffff">11</text>
<text x="197" y="374" text-anchor="middle" font-size="16" font-weight="bold" fill="#1a1a1a">av_semantic_anomalies</text>
<text x="197" y="394" text-anchor="middle" font-size="15" fill="#1a1a1a">paired Normal / Anomalous videos with trajectories</text>
<text x="197" y="412" text-anchor="middle" font-size="15" fill="#555555">10 Hz native + 5 Hz files; released on Hugging Face</text>

<svg x="163" y="328" width="24" height="24" viewBox="0 0 24 24" fill="none" stroke="#155e8d" stroke-width="1.7" stroke-linecap="round" stroke-linejoin="round"><rect x="2.5" y="5" width="19" height="14" rx="2"></rect><path d="M6.5 5 V19 M17.5 5 V19 M2.5 9.5 H6.5 M2.5 14.5 H6.5 M17.5 9.5 H21.5 M17.5 14.5 H21.5"></path><path d="M10.5 9.5 L14.5 12 L10.5 14.5 Z"></path></svg>
<svg x="207" y="328" width="24" height="24" viewBox="0 0 24 24" fill="none" stroke="#b45309" stroke-width="1.7" stroke-linecap="round" stroke-linejoin="round"><path d="M2.5 19 C7 19 9 5.5 14 5.5 C17.5 5.5 18.5 12 21.5 12"></path><circle cx="21.5" cy="12" r="1.9"></circle><path d="M2.5 19 H8" ></path></svg>
<line x1="996" y1="372" x2="969" y2="372" stroke="#155e8d" stroke-width="1.7" marker-end="url(#aB)"></line>
<line x1="800" y1="372" x2="773" y2="372" stroke="#b45309" stroke-width="1.7" marker-end="url(#aA)"></line>
<line x1="604" y1="372" x2="577" y2="372" stroke="#b45309" stroke-width="1.7" marker-end="url(#aA)"></line>
<line x1="408" y1="372" x2="381" y2="372" stroke="#b45309" stroke-width="1.7" marker-end="url(#aA)"></line>
<line x1="1109" y1="204" x2="1109" y2="317" stroke="#155e8d" stroke-width="1.7" marker-end="url(#aB)"></line>
<text x="1117" y="266" font-size="13.5" font-style="italic" fill="#555555">validated</text>
<path d="M1049 320 V262 H687" stroke="#6b6b6b" stroke-width="1.5" fill="none"></path>
<line x1="687" y1="320" x2="687" y2="207" stroke="#6b6b6b" stroke-width="1.5" marker-end="url(#aL)"></line>
<circle cx="687" cy="262" r="3" fill="#6b6b6b"></circle>
<text x="868" y="255" text-anchor="middle" font-size="13.5" font-style="italic" fill="#555555">each variant is rendered and filtered again</text>
<text x="696" y="304" font-size="13.5" font-style="italic" fill="#555555">fail: regenerate</text>
<path d="M883 100 V70 H687 V97" stroke="#6b6b6b" stroke-width="1.5" fill="none" marker-end="url(#aL)"></path>
<text x="785" y="63" text-anchor="middle" font-size="13.5" font-style="italic" fill="#555555">fail: regenerate (new seed, settings)</text>
<path d="M1079 100 V44 H295 V97" stroke="#6b6b6b" stroke-width="1.5" fill="none" stroke-dasharray="6 4" marker-end="url(#aL)"></path>
<text x="687" y="37" text-anchor="middle" font-size="13.5" font-style="italic" fill="#555555">fail: revise the sparse prompt</text>
<rect x="16" y="447" width="14" height="14" rx="3" fill="#ffffff" stroke="#155e8d" stroke-width="1.6"></rect>
<text x="36" y="458" font-size="14" fill="#1a1a1a">video generation</text>
<rect x="180.4" y="447" width="14" height="14" rx="3" fill="#ffffff" stroke="#b45309" stroke-width="1.6"></rect>
<text x="200.4" y="458" font-size="14" fill="#1a1a1a">action recovery</text>
<rect x="337.4" y="447" width="14" height="14" rx="3" fill="#e8f0f6" stroke="#155e8d" stroke-width="1.6"></rect>
<text x="357.4" y="458" font-size="14" fill="#1a1a1a">automated filter</text>
<rect x="501.79999999999995" y="447" width="14" height="14" rx="3" fill="#f2f2f2" stroke="#1a1a1a" stroke-width="1.6"></rect>
<text x="521.8" y="458" font-size="14" fill="#1a1a1a">human review</text>
<text x="16" y="484" font-size="14" font-style="italic" fill="#555555">Three witnesses gate the evaluation subset: the optical-flow probe (5), the prompt&#8211;trajectory heuristic (9), and human review (6, 10).</text>
</svg>